<svg width="25" height="25" viewBox="0 0 25 25" fill="none" xmlns="http://www.w3.org/2000/svg">
<path d="M23.9228 12.0021C23.9228 14.3609 23.2233 16.6666 21.9128 18.6278C20.6023 20.5889 18.7396 22.1174 16.5603 23.0198C14.3811 23.9223 11.9831 24.1582 9.6698 23.6977C7.35646 23.2372 5.23164 22.101 3.56407 20.4329C1.8965 18.7647 0.761094 16.6395 0.30145 14.326C-0.158194 12.0125 0.0785724 9.61462 0.981804 7.43568C1.88504 5.25675 3.41416 3.39462 5.37578 2.0848C7.33739 0.774984 9.64339 0.0763166 12.0021 0.0771645C13.5679 0.0771644 15.1184 0.385644 16.565 0.984984C18.0115 1.58432 19.3258 2.46278 20.4328 3.57017C21.5398 4.67757 22.4178 5.9922 23.0166 7.43898C23.6155 8.88576 23.9234 10.4363 23.9228 12.0021Z" fill="#03C75A"/>
<path d="M23.8328 12.0022C23.8328 18.5862 18.5947 23.9229 12.1393 23.9229C5.68387 23.9229 0.428648 18.5862 0.428648 12.0022C0.428648 5.41812 5.67959 0.0771637 12.1393 0.0771637C18.599 0.0771637 23.8328 5.41383 23.8328 12.0022Z" fill="#03C75A"/>
<path d="M12.0021 24.0043C9.62833 24.0043 7.30784 23.3004 5.3341 21.9815C3.36036 20.6627 1.82202 18.7883 0.913602 16.5952C0.00518803 14.402 -0.232494 11.9888 0.230611 9.66063C0.693716 7.33244 1.83681 5.19387 3.51534 3.51534C5.19387 1.83681 7.33245 0.693713 9.66063 0.230608C11.9888 -0.232497 14.4021 0.00518517 16.5952 0.913599C18.7883 1.82201 20.6627 3.36036 21.9816 5.3341C23.3004 7.30784 24.0043 9.62833 24.0043 12.0021C24.0043 15.1853 22.7398 18.2381 20.4889 20.4889C18.2381 22.7398 15.1853 24.0043 12.0021 24.0043ZM12.0021 1.28593C9.88267 1.28593 7.8108 1.91443 6.04853 3.09194C4.28626 4.26945 2.91274 5.94309 2.10166 7.90122C1.29058 9.85935 1.07836 12.014 1.49185 14.0928C1.90533 16.1715 2.92595 18.0809 4.42464 19.5796C5.92333 21.0783 7.83277 22.0989 9.91151 22.5124C11.9902 22.9259 14.1449 22.7137 16.103 21.9026C18.0612 21.0915 19.7348 19.718 20.9123 17.9557C22.0898 16.1935 22.7183 14.1216 22.7183 12.0021C22.7183 9.16002 21.5893 6.43431 19.5796 4.42464C17.57 2.41496 14.8442 1.28593 12.0021 1.28593Z" fill="#03C75A"/>
<path d="M10.6647 16.9059C10.4932 16.905 10.3286 16.8374 10.2061 16.7173L6.66974 13.1809C6.61007 13.121 6.56279 13.0499 6.53061 12.9716C6.49842 12.8934 6.48196 12.8096 6.48216 12.725C6.48236 12.6405 6.49922 12.5568 6.53177 12.4787C6.56432 12.4006 6.61193 12.3297 6.67188 12.2701C6.73183 12.2104 6.80295 12.1631 6.88117 12.1309C6.95939 12.0987 7.04318 12.0823 7.12776 12.0825C7.21235 12.0827 7.29606 12.0995 7.37413 12.1321C7.4522 12.1646 7.52309 12.2122 7.58276 12.2722L10.639 15.3285L16.5072 8.81301C16.5619 8.74483 16.6299 8.68853 16.7071 8.64753C16.7843 8.60653 16.8691 8.58171 16.9562 8.57457C17.0433 8.56743 17.131 8.57812 17.2138 8.60601C17.2966 8.63389 17.3729 8.67837 17.438 8.73673C17.5031 8.79509 17.5556 8.8661 17.5923 8.94543C17.629 9.02476 17.6491 9.11074 17.6515 9.19812C17.6538 9.28549 17.6383 9.37243 17.6059 9.45362C17.5735 9.5348 17.5249 9.60853 17.4631 9.6703L11.1448 16.6916C11.0865 16.7572 11.0153 16.8101 10.9357 16.8469C10.856 16.8838 10.7696 16.9039 10.6819 16.9059H10.6647Z" fill="white"/>
</svg>
